<svg width="28" height="36" viewBox="0 0 28 36" fill="none" xmlns="http://www.w3.org/2000/svg">
<g clip-path="url(#clip0)">
<path d="M0.00595318 24.9807C0.00595318 29.7137 2.99001 33.5504 6.67119 33.5504C10.3524 33.5504 13.3365 29.7137 13.3365 24.9807C13.3365 20.2477 10.3524 16.4111 6.67119 16.4111C5.91465 16.4111 5.19046 16.5807 4.51252 16.8795C6.01248 5.8189 12.7209 -1.31394 6.50222 4.55653C-0.393398 11.0662 -0.00143201 24.7188 0.00628386 24.969C0.00628386 24.9729 0.00595318 24.9764 0.00595318 24.9807Z" fill="#F7931E"/>
<path d="M14.67 24.9807C14.67 29.7137 17.6541 33.5504 21.3353 33.5504C25.0166 33.5504 28.0006 29.7137 28.0006 24.9807C28.0006 20.2477 25.0165 16.4111 21.3353 16.4111C20.5787 16.4111 19.8545 16.5807 19.1766 16.8795C20.6766 5.8189 27.385 -1.31394 21.1663 4.55653C14.2707 11.0662 14.6626 24.7188 14.6704 24.969C14.6704 24.9729 14.67 24.9764 14.67 24.9807Z" fill="#F7931E"/>
</g>
<defs>
<clipPath id="clip0">
<rect width="28" height="36" fill="white"/>
</clipPath>
</defs>
</svg>
