<svg width="17" height="17" viewBox="0 0 17 17" fill="none" xmlns="http://www.w3.org/2000/svg">
<g clip-path="url(#clip0)">
<path d="M16.7486 1.98334C16.4143 1.64895 15.8723 1.64907 15.5382 1.98345L7.85703 9.66592L4.31862 6.1274C3.98424 5.79313 3.44226 5.79302 3.10822 6.12729C2.77384 6.46155 2.77384 7.00353 3.10811 7.33768L7.25183 11.4816C7.4124 11.6422 7.63004 11.7324 7.85714 11.7324C8.08414 11.7324 8.30188 11.6422 8.46246 11.4816L16.7489 3.19373C17.0829 2.85958 17.0829 2.3176 16.7486 1.98334Z" fill="#39B54A"/>
<path d="M14.9011 7.46883C14.4284 7.46883 14.0452 7.85194 14.0452 8.32476V14.6666H1.71186V2.33326H11.4774C11.9502 2.33326 12.3334 1.95014 12.3334 1.47733C12.3334 1.00463 11.9502 0.621399 11.4774 0.621399H0.855929C0.383228 0.621399 0 1.00451 0 1.47733V15.5225C0 15.9954 0.383228 16.3785 0.855929 16.3785H14.9011C15.374 16.3785 15.7571 15.9954 15.7571 15.5225V8.32476C15.7571 7.85206 15.374 7.46883 14.9011 7.46883Z" fill="#585858"/>
</g>
<defs>
<clipPath id="clip0">
<rect width="17" height="17" fill="white"/>
</clipPath>
</defs>
</svg>
