<svg width="512" height="512" viewBox="0 0 512 512" fill="none" xmlns="http://www.w3.org/2000/svg">
<path d="M186.289 120C191.809 120 196.289 115.52 196.289 110C196.289 104.48 191.809 100 186.289 100C180.77 100 176.289 104.48 176.289 110C176.289 115.52 180.77 120 186.289 120Z" fill="white"/>
<path d="M436.582 180.289C436.582 161.859 426.926 145.039 411.699 135.59C414.07 129.531 415.301 123.051 415.301 116.43C415.301 90.6289 396.742 69.0469 371.914 64.6641C367.555 40.0469 346 21.2891 320.152 21.2891C313.527 21.2891 307.047 22.5156 300.992 24.8867C291.543 9.65625 274.723 0 256.289 0C237.859 0 221.035 9.65625 211.59 24.8867C205.531 22.5156 199.055 21.2891 192.43 21.2891C178.363 21.2891 165.148 26.7734 155.227 36.7305C147.535 44.4492 142.539 54.1328 140.719 64.6484C130.164 66.4883 120.445 71.5078 112.707 79.2305C102.758 89.1641 97.2812 102.375 97.2812 116.43C97.2812 123.051 98.5078 129.531 100.883 135.59C85.6563 145.035 76 161.859 76 180.289C76 198.727 85.6563 215.551 100.883 224.996C98.5078 231.059 97.2812 237.531 97.2812 244.148C97.2812 270 116.027 291.555 140.641 295.922C143.324 311.258 152.676 324.594 166.289 332.359V502C166.289 506.047 168.727 509.691 172.461 511.238C176.199 512.785 180.5 511.93 183.359 509.07L256.289 436.145L329.219 509.07C332.082 511.934 336.379 512.785 340.117 511.238C343.852 509.691 346.289 506.047 346.289 502V332.348C359.883 324.586 369.168 311.266 371.77 295.961C382.332 294.137 392.063 289.133 399.816 281.414C409.801 271.473 415.301 258.238 415.301 244.148C415.301 237.531 414.07 231.055 411.699 224.996C426.926 215.551 436.582 198.727 436.582 180.289V180.289ZM186.289 338.934C188.316 339.168 190.363 339.301 192.43 339.301C197.16 339.301 201.809 338.664 206.289 337.441V457.859L186.289 477.859V338.934ZM249.219 414.93L226.289 437.855V351.145C234.875 357.141 245.27 360.59 256.289 360.59C267.246 360.59 277.66 357.148 286.289 351.156V437.859L263.363 414.93C259.457 411.023 253.125 411.023 249.219 414.93V414.93ZM306.289 457.855V337.441C310.773 338.664 315.426 339.301 320.152 339.301C322.215 339.301 324.262 339.168 326.289 338.93V477.859L306.289 457.855ZM394.797 211.047C391.879 212.07 389.598 214.387 388.621 217.324C387.645 220.258 388.082 223.48 389.805 226.051C393.402 231.41 395.301 237.668 395.301 244.152C395.301 252.883 391.895 261.082 385.707 267.238C379.551 273.363 371.391 276.73 362.711 276.73C362.645 276.73 362.582 276.73 362.512 276.73C359.852 276.73 357.301 277.789 355.422 279.676C353.535 281.57 352.488 284.145 352.512 286.82C352.629 300.043 344.773 311.84 332.496 316.879C332.492 316.879 332.492 316.879 332.492 316.879C328.578 318.484 324.426 319.301 320.152 319.301C313.664 319.301 307.398 317.402 302.031 313.809C300.609 312.859 298.984 312.316 297.32 312.176C297.313 312.172 297.305 312.172 297.297 312.172C297.035 312.148 296.773 312.133 296.512 312.133C296.437 312.129 296.367 312.121 296.293 312.121C291.426 312.121 287.375 315.598 286.48 320.203C281.543 332.438 269.562 340.59 256.293 340.59C242.547 340.59 230.367 331.98 225.867 319.145C225.508 317.945 224.93 316.848 224.176 315.887C224.172 315.883 224.168 315.875 224.16 315.867C223.961 315.613 223.754 315.371 223.531 315.141C223.5 315.109 223.473 315.074 223.445 315.043C223.254 314.848 223.051 314.664 222.844 314.488C222.781 314.434 222.723 314.371 222.656 314.316C222.594 314.266 222.523 314.219 222.457 314.168C221.414 313.344 220.211 312.719 218.898 312.363C216.086 311.598 213.082 312.098 210.668 313.727C205.281 317.375 198.973 319.301 192.43 319.301C188.148 319.301 183.992 318.488 180.082 316.887C167.777 311.844 159.836 300.012 159.852 286.742C159.855 284.09 158.801 281.543 156.926 279.664C155.051 277.785 152.504 276.73 149.852 276.73C131.891 276.73 117.281 262.117 117.281 244.152C117.281 237.672 119.184 231.41 122.777 226.051C124.5 223.48 124.937 220.258 123.961 217.324C122.984 214.387 120.703 212.07 117.785 211.047C104.758 206.473 96.0039 194.113 96.0039 180.289C96.0039 166.473 104.754 154.117 117.785 149.547C120.703 148.523 122.984 146.203 123.961 143.27C124.937 140.332 124.5 137.109 122.777 134.539C119.184 129.18 117.281 122.918 117.281 116.43C117.281 107.723 120.676 99.5391 126.84 93.3867C132.996 87.2422 141.172 83.8594 149.867 83.8594H149.941C152.598 83.8594 155.145 82.8047 157.02 80.9258C158.898 79.043 159.953 76.4883 159.941 73.8242C159.914 65.1523 163.27 56.9922 169.391 50.8477C175.535 44.6836 183.719 41.2891 192.43 41.2891C198.93 41.2891 205.191 43.1836 210.543 46.7734C213.109 48.4961 216.332 48.9336 219.27 47.957C222.207 46.9805 224.523 44.6992 225.547 41.7812C230.121 28.7539 242.473 20 256.289 20C270.105 20 282.461 28.7539 287.035 41.7812C288.059 44.6992 290.379 46.9805 293.312 47.957C296.25 48.9336 299.469 48.4961 302.039 46.7734C307.391 43.1875 313.652 41.2891 320.152 41.2891C338.109 41.2891 352.719 55.9023 352.719 73.8594C352.719 79.3828 357.199 83.8594 362.719 83.8594C380.812 83.8594 395.301 98.4766 395.301 116.43C395.301 122.914 393.398 129.18 389.805 134.539C388.082 137.109 387.645 140.332 388.621 143.27C389.598 146.203 391.879 148.52 394.797 149.547C407.828 154.117 416.578 166.473 416.578 180.289C416.582 194.113 407.828 206.473 394.797 211.047V211.047Z" fill="white"/>
<path d="M256.289 70C242.18 70 228.418 72.6445 215.387 77.8555C210.258 79.9062 207.766 85.7266 209.816 90.8516C211.867 95.9805 217.688 98.4727 222.812 96.4258C233.473 92.1602 244.734 90 256.289 90C305.918 90 346.289 130.375 346.289 180C346.289 229.625 305.918 270 256.289 270C206.664 270 166.289 229.625 166.289 180C166.289 168.445 168.453 157.184 172.715 146.523C174.766 141.395 172.273 135.574 167.145 133.523C162.016 131.477 156.199 133.965 154.145 139.094C148.934 152.129 146.289 165.891 146.289 180C146.289 240.652 195.637 290 256.289 290C316.945 290 366.289 240.652 366.289 180C366.289 119.348 316.945 70 256.289 70Z" fill="white"/>
<path d="M306.289 180C306.289 185.523 310.77 190 316.289 190C321.813 190 326.289 185.523 326.289 180C326.289 141.402 294.887 110 256.289 110C250.77 110 246.289 114.477 246.289 120C246.289 125.523 250.77 130 256.289 130C283.859 130 306.289 152.43 306.289 180Z" fill="white"/>
</svg>
