<svg width="512" height="512" viewBox="0 0 512 512" fill="none" xmlns="http://www.w3.org/2000/svg">
<path d="M256 284.09C334.299 284.09 398 220.389 398 142.09C398 63.7911 334.299 0.0900879 256 0.0900879C177.701 0.0900879 114 63.7911 114 142.09C114 220.389 177.701 284.09 256 284.09ZM256 20.0901C323.271 20.0901 378 74.8191 378 142.09C378 209.361 323.271 264.09 256 264.09C188.729 264.09 134 209.361 134 142.09C134 74.8191 188.729 20.0901 256 20.0901Z" fill="white"/>
<path d="M345.523 152.202H354.016C359.538 152.202 364.016 147.725 364.016 142.202C364.016 136.679 359.538 132.202 354.016 132.202H345.523C340.001 132.202 335.523 136.679 335.523 142.202C335.523 147.725 340.001 152.202 345.523 152.202Z" fill="white"/>
<path d="M176.477 141.978C176.477 136.455 171.999 131.978 166.477 131.978H157.984C152.462 131.978 147.984 136.455 147.984 141.978C147.984 147.501 152.462 151.978 157.984 151.978H166.477C171.999 151.978 176.477 147.501 176.477 141.978Z" fill="white"/>
<path d="M256.111 62.566C261.633 62.566 266.111 58.089 266.111 52.566V44.073C266.111 38.55 261.633 34.073 256.111 34.073C250.589 34.073 246.111 38.55 246.111 44.073V52.566C246.111 58.089 250.589 62.566 256.111 62.566Z" fill="white"/>
<path d="M255.889 221.613C250.367 221.613 245.889 226.09 245.889 231.613V240.106C245.889 245.629 250.367 250.106 255.889 250.106C261.411 250.106 265.889 245.629 265.889 240.106V231.613C265.889 226.09 261.411 221.613 255.889 221.613Z" fill="white"/>
<path d="M248.833 149.064L248.945 149.176C250.896 151.119 253.448 152.09 256.001 152.09C258.561 152.09 261.12 151.113 263.072 149.161L332.201 80.0321C336.106 76.1271 336.106 69.7951 332.201 65.8891C328.295 61.9841 321.965 61.9851 318.058 65.8891L256.001 127.948L219.949 91.8961C216.044 87.9911 209.714 87.9911 205.806 91.8961C201.901 95.8011 201.901 102.133 205.806 106.038L248.833 149.064Z" fill="white"/>
<path d="M473.325 282.101C458.856 270.465 438.044 271.591 424.915 284.721L354.47 355.166C352.71 341.247 342.611 329.639 328.709 326.155L234.14 302.462C214.462 297.531 193.696 299.929 175.661 309.21L117.683 339.047L112.218 329.582C110.1 325.913 106.68 323.289 102.588 322.192C98.5008 321.099 94.2258 321.66 90.5568 323.777L33.2138 356.883C25.6428 361.254 23.0388 370.971 27.4098 378.543L99.8278 503.974C101.946 507.643 105.365 510.267 109.456 511.364C110.822 511.73 112.209 511.911 113.587 511.911C116.334 511.911 119.046 511.19 121.489 509.78L178.83 476.674C186.402 472.303 189.007 462.586 184.635 455.013L127.694 356.388L184.811 326.993C198.526 319.935 214.317 318.113 229.278 321.862L323.847 345.555C330.263 347.162 334.743 352.905 334.743 359.518C334.743 367.455 328.286 373.912 320.348 373.912H309.541H246.019C240.497 373.912 236.019 378.39 236.019 383.912C236.019 389.434 240.497 393.912 246.019 393.912H309.541H320.348H328.956C338.662 393.912 347.787 390.133 354.65 383.269L439.055 298.864C444.948 292.969 454.293 292.463 460.789 297.687C464.444 300.625 466.597 304.824 466.85 309.506C467.104 314.189 465.417 318.594 462.101 321.909L373.151 410.859C361.022 422.989 344.895 429.669 327.742 429.669H246.145C240.623 429.669 236.145 434.147 236.145 439.669C236.145 445.191 240.623 449.669 246.145 449.669H327.742C350.237 449.669 371.387 440.908 387.294 425.002L476.244 336.052C483.522 328.773 487.378 318.703 486.821 308.425C486.267 298.146 481.347 288.551 473.325 282.101ZM149.253 470.655L124.394 427.598C121.632 422.817 115.516 421.176 110.734 423.938C105.951 426.7 104.312 432.815 107.074 437.598L131.933 480.656L115.079 490.387L46.8028 372.132L96.9678 343.169L165.242 461.423L149.253 470.655Z" fill="white"/>
<path d="M462 33.9011C467.522 33.9011 472 29.4241 472 23.9011V10.0901C472 4.56709 467.522 0.0900879 462 0.0900879C456.478 0.0900879 452 4.56709 452 10.0901V23.9011C452 29.4241 456.478 33.9011 462 33.9011Z" fill="white"/>
<path d="M462 100.09C467.522 100.09 472 95.613 472 90.09V76.2791C472 70.7561 467.522 66.2791 462 66.2791C456.478 66.2791 452 70.7561 452 76.2791V90.09C452 95.613 456.478 100.09 462 100.09Z" fill="white"/>
<path d="M502 40.0901H488.188C482.666 40.0901 478.188 44.5671 478.188 50.0901C478.188 55.6131 482.666 60.0901 488.188 60.0901H502C507.522 60.0901 512 55.6131 512 50.0901C512 44.5671 507.522 40.0901 502 40.0901Z" fill="white"/>
<path d="M422 60.0901H435.812C441.334 60.0901 445.812 55.6131 445.812 50.0901C445.812 44.5671 441.334 40.0901 435.812 40.0901H422C416.478 40.0901 412 44.5671 412 50.0901C412 55.6131 416.478 60.0901 422 60.0901Z" fill="white"/>
<path d="M50 239.901C55.522 239.901 60 235.424 60 229.901V216.09C60 210.567 55.522 206.09 50 206.09C44.478 206.09 40 210.567 40 216.09V229.901C40 235.424 44.478 239.901 50 239.901Z" fill="white"/>
<path d="M50 306.09C55.522 306.09 60 301.612 60 296.09V282.278C60 276.756 55.522 272.278 50 272.278C44.478 272.278 40 276.756 40 282.278V296.09C40 301.612 44.478 306.09 50 306.09Z" fill="white"/>
<path d="M76.1875 266.09H89.9995C95.5215 266.09 99.9995 261.612 99.9995 256.09C99.9995 250.567 95.5215 246.09 89.9995 246.09H76.1875C70.6655 246.09 66.1875 250.567 66.1875 256.09C66.1875 261.612 70.6655 266.09 76.1875 266.09Z" fill="white"/>
<path d="M33.812 256.09C33.812 250.567 29.334 246.09 23.812 246.09H10C4.478 246.09 0 250.567 0 256.09C0 261.612 4.478 266.09 10 266.09H23.812C29.334 266.09 33.812 261.612 33.812 256.09Z" fill="white"/>
<path d="M206.148 429.667C203.508 429.667 200.938 430.737 199.079 432.597C197.209 434.457 196.148 437.037 196.148 439.667C196.148 442.297 197.209 444.877 199.079 446.737C200.938 448.596 203.518 449.667 206.148 449.667C208.779 449.667 211.358 448.597 213.218 446.737C215.078 444.877 216.148 442.297 216.148 439.667C216.148 437.037 215.079 434.457 213.218 432.597C211.358 430.737 208.779 429.667 206.148 429.667Z" fill="white"/>
<path d="M88.6595 390.887C86.7995 392.747 85.7285 395.327 85.7285 397.957C85.7285 400.587 86.7985 403.167 88.6595 405.027C90.5185 406.886 93.0985 407.957 95.7285 407.957C98.3695 407.957 100.939 406.887 102.799 405.027C104.669 403.167 105.729 400.587 105.729 397.957C105.729 395.327 104.669 392.747 102.799 390.887C100.939 389.028 98.3685 387.957 95.7285 387.957C93.0995 387.957 90.5195 389.027 88.6595 390.887Z" fill="white"/>
</svg>
