<svg width="512" height="512" viewBox="0 0 512 512" fill="none" xmlns="http://www.w3.org/2000/svg">
<path d="M256 126C250.48 126 246 130.48 246 136C246 141.52 250.48 146 256 146C261.52 146 266 141.52 266 136C266 130.48 261.52 126 256 126Z" fill="white"/>
<path d="M90 306C95.5195 306 100 301.52 100 296C100 290.48 95.5195 286 90 286C84.4805 286 80 290.48 80 296C80 301.52 84.4805 306 90 306Z" fill="white"/>
<path d="M336 26C245.973 26 172.082 88.0703 166.367 166.254C80.6289 170.555 0 232.379 0 316C0 350.945 13.8281 384.805 39 411.633C43.9805 432.164 37.9336 453.926 22.9297 468.93C20.0703 471.789 19.2148 476.09 20.7617 479.828C22.3086 483.562 25.9531 486 30 486C58.5195 486 86.0039 474.816 106.426 455.109C126.32 461.891 152.277 466 176 466C266.016 466 339.898 403.945 345.629 325.777C366.566 324.848 388.344 320.98 405.574 315.109C425.996 334.816 453.48 346 482 346C486.047 346 489.691 343.562 491.238 339.828C492.785 336.09 491.93 331.789 489.07 328.93C474.066 313.926 468.02 292.164 473 271.633C498.172 244.805 512 210.945 512 176C512 89.1133 425.16 26 336 26ZM176 446C152.398 446 125.504 441.367 107.488 434.199C103.629 432.66 99.2188 433.672 96.4102 436.738C84.3359 449.938 68.6367 459.141 51.5312 463.371C60.957 445.312 63.3633 424.023 57.6289 403.852C57.1758 402.262 56.3359 400.809 55.1836 399.625C32.4961 376.258 20 346.559 20 316C20 245.531 91.4375 186 176 186C255.852 186 326 241.527 326 316C326 387.684 258.711 446 176 446V446ZM456.816 259.625C455.664 260.812 454.824 262.266 454.371 263.852C448.637 284.023 451.043 305.312 460.469 323.371C443.363 319.145 427.664 309.938 415.59 296.738C412.781 293.676 408.371 292.66 404.512 294.199C388.898 300.41 366.625 304.711 345.598 305.75C342.676 267.934 323.812 232.391 291.562 206H422C427.523 206 432 201.523 432 196C432 190.477 427.523 186 422 186H260.84C238.141 174.445 212.652 167.707 186.418 166.293C192.164 99.1289 257.059 46 336 46C420.562 46 492 105.531 492 176C492 206.559 479.504 236.258 456.816 259.625V259.625Z" fill="white"/>
<path d="M256 286H130C124.477 286 120 290.477 120 296C120 301.523 124.477 306 130 306H256C261.523 306 266 301.523 266 296C266 290.477 261.523 286 256 286Z" fill="white"/>
<path d="M256 346H90C84.4766 346 80 350.477 80 356C80 361.523 84.4766 366 90 366H256C261.523 366 266 361.523 266 356C266 350.477 261.523 346 256 346Z" fill="white"/>
<path d="M422 126H296C290.477 126 286 130.477 286 136C286 141.523 290.477 146 296 146H422C427.523 146 432 141.523 432 136C432 130.477 427.523 126 422 126Z" fill="white"/>
</svg>
